<svg width="60" height="60" viewBox="0 0 60 60" fill="none" xmlns="http://www.w3.org/2000/svg">
<path fill-rule="evenodd" clip-rule="evenodd" d="M26.9453 23.8734C26.9453 24.3774 26.9453 26.627 26.9453 26.627H25V29.9941H26.9453V40H30.9414V29.9944H33.6229C33.6229 29.9944 33.874 28.3799 33.9958 26.6146C33.6468 26.6146 30.9565 26.6146 30.9565 26.6146C30.9565 26.6146 30.9565 24.6557 30.9565 24.3123C30.9565 23.9682 31.3922 23.5054 31.8228 23.5054C32.2526 23.5054 33.1598 23.5054 34 23.5054C34 23.0469 34 21.4629 34 20C32.8783 20 31.6022 20 31.0397 20C26.8465 19.9998 26.9453 23.3702 26.9453 23.8734Z" fill="#002F6C"/>
</svg>
