<svg width="60" height="60" viewBox="0 0 60 60" fill="none" xmlns="http://www.w3.org/2000/svg">
<path d="M30.02 20.9831C32.9623 20.9831 33.3113 20.9941 34.4739 21.0472C37.4603 21.1829 38.8553 22.5976 38.9912 25.557C39.0445 26.7168 39.0546 27.0652 39.0546 30.0026C39.0546 32.941 39.0435 33.2884 38.9912 34.4482C38.8544 37.4049 37.4631 38.8223 34.4739 38.958C33.3113 39.0112 32.9642 39.0222 30.02 39.0222C27.0777 39.0222 26.7287 39.0112 25.567 38.958C22.5732 38.8214 21.1856 37.4003 21.0497 34.4473C20.9965 33.2875 20.9854 32.9401 20.9854 30.0017C20.9854 27.0642 20.9974 26.7168 21.0497 25.5561C21.1866 22.5976 22.5778 21.182 25.567 21.0463C26.7296 20.9941 27.0777 20.9831 30.02 20.9831ZM30.02 19C27.0272 19 26.6525 19.0128 25.477 19.066C21.4749 19.2494 19.2507 21.4662 19.067 25.4653C19.0129 26.6398 19 27.0138 19 30.0017C19 32.9896 19.0129 33.3645 19.0661 34.538C19.2498 38.5335 21.4703 40.754 25.4761 40.9374C26.6525 40.9905 27.0272 41.0034 30.02 41.0034C33.0128 41.0034 33.3884 40.9905 34.5639 40.9374C38.5623 40.754 40.7921 38.5372 40.973 34.538C41.0271 33.3645 41.04 32.9896 41.04 30.0017C41.04 27.0138 41.0271 26.6398 40.9739 25.4662C40.7939 21.4745 38.5706 19.2503 34.5648 19.0669C33.3884 19.0128 33.0128 19 30.02 19ZM30.02 24.3523C26.8949 24.3523 24.3612 26.8818 24.3612 30.0017C24.3612 33.1216 26.8949 35.652 30.02 35.652C33.1451 35.652 35.6788 33.1225 35.6788 30.0017C35.6788 26.8818 33.1451 24.3523 30.02 24.3523ZM30.02 33.6689C27.9914 33.6689 26.3467 32.0278 26.3467 30.0017C26.3467 27.9765 27.9914 26.3345 30.02 26.3345C32.0486 26.3345 33.6933 27.9765 33.6933 30.0017C33.6933 32.0278 32.0486 33.6689 30.02 33.6689ZM35.9028 22.8093C35.1719 22.8093 34.5795 23.4007 34.5795 24.1295C34.5795 24.8584 35.1719 25.4497 35.9028 25.4497C36.6329 25.4497 37.2243 24.8584 37.2243 24.1295C37.2243 23.4007 36.6329 22.8093 35.9028 22.8093Z" fill="#F6EFDF"/>
</svg>
