<svg width="60" height="60" viewBox="0 0 60 60" fill="none" xmlns="http://www.w3.org/2000/svg">
<rect x="0.5" y="0.5" width="59" height="59" rx="29.5" stroke="#F6EFDF"/>
<path d="M20 25.8333H24.1667V40H20V25.8333ZM22.0708 24.1667H22.0475C20.8042 24.1667 20 23.24 20 22.0825C20 20.9 20.8292 20 22.095 20C23.3625 20 24.1433 20.9 24.1667 22.0825C24.1667 23.2392 23.3625 24.1667 22.0708 24.1667ZM40 40H35.8333V32.4175C35.8333 30.5858 34.8125 29.3358 33.1733 29.3358C31.9225 29.3358 31.2458 30.1792 30.9175 30.9942C30.7975 31.2858 30.8333 32.0925 30.8333 32.5V40H26.6667V25.8333H30.8333V28.0133C31.4342 27.0833 32.375 25.8333 34.7817 25.8333C37.7633 25.8333 39.9992 27.7083 39.9992 31.895L40 40Z" fill="#F6EFDF"/>
</svg>
